<svg width="57" height="40" viewBox="0 0 57 40" fill="none" xmlns="http://www.w3.org/2000/svg">
<path fill-rule="evenodd" clip-rule="evenodd" d="M20 40C31.0457 40 40 31.0457 40 20C40 19.4995 39.9816 19.0034 39.9455 18.5121V17.3288C39.9062 17.319 39.8642 17.3101 39.8196 17.302C38.5022 7.53229 30.1307 0 20 0C8.9543 0 0 8.9543 0 20C0 31.0457 8.9543 40 20 40ZM39.8196 17.302C39.7588 17.2911 39.693 17.2818 39.6223 17.2741C39.4997 17.2609 39.3854 17.2543 39.2793 17.2543C38.8517 17.2543 38.4739 17.3769 38.1458 17.6222C37.8176 17.8641 37.584 18.2221 37.4448 18.696H37.3652V17.3636H35.312V25H37.4299V20.6797C37.4299 20.3681 37.4995 20.093 37.6387 19.8544C37.7812 19.6158 37.9734 19.4302 38.2154 19.2976C38.4606 19.1617 38.7391 19.0938 39.0506 19.0938C39.1964 19.0938 39.3572 19.1054 39.5328 19.1286C39.7085 19.1518 39.8461 19.1783 39.9455 19.2081V18.5121C39.9156 18.1053 39.8735 17.7018 39.8196 17.302ZM5.89631 16.8118C6.19792 17.0339 6.36861 17.3454 6.40838 17.7464H8.47159C8.46165 17.1399 8.29924 16.6063 7.98438 16.1456C7.66951 15.6849 7.22869 15.3253 6.66193 15.0668C6.09848 14.8082 5.43892 14.679 4.68324 14.679C3.94081 14.679 3.27794 14.8082 2.6946 15.0668C2.11127 15.3253 1.65223 15.6849 1.31747 16.1456C0.986032 16.6063 0.82197 17.1449 0.825284 17.7614C0.82197 18.5137 1.06889 19.112 1.56605 19.5561C2.06321 20.0002 2.741 20.3267 3.59943 20.5355L4.7081 20.8139C5.07931 20.9034 5.39252 21.0028 5.64773 21.1122C5.90625 21.2216 6.1018 21.3542 6.23438 21.5099C6.37027 21.6657 6.43821 21.858 6.43821 22.0866C6.43821 22.3319 6.36364 22.549 6.21449 22.7379C6.06534 22.9268 5.85488 23.0743 5.5831 23.1804C5.31463 23.2865 4.99811 23.3395 4.63352 23.3395C4.26231 23.3395 3.92921 23.2831 3.63423 23.1705C3.34257 23.0545 3.1089 22.8838 2.93324 22.6584C2.76089 22.4297 2.66312 22.1446 2.63991 21.8033H0.556818C0.57339 22.5357 0.75071 23.1506 1.08878 23.6477C1.43016 24.1416 1.90412 24.5144 2.51065 24.7663C3.1205 25.0182 3.83641 25.1442 4.65838 25.1442C5.48698 25.1442 6.1946 25.0199 6.78125 24.7713C7.37121 24.5194 7.82197 24.1664 8.13352 23.7124C8.44839 23.255 8.60748 22.7147 8.6108 22.0916C8.60748 21.6674 8.52959 21.2912 8.37713 20.9631C8.22798 20.6349 8.01752 20.3499 7.74574 20.108C7.47396 19.866 7.15246 19.6622 6.78125 19.4964C6.41004 19.3307 6.00237 19.1982 5.55824 19.0987L4.64347 18.88C4.4214 18.8303 4.21259 18.7706 4.01705 18.701C3.8215 18.6281 3.64915 18.5436 3.5 18.4474C3.35085 18.348 3.23319 18.2304 3.14702 18.0945C3.06416 17.9586 3.02604 17.7995 3.03267 17.6172C3.03267 17.3984 3.09564 17.2029 3.22159 17.0305C3.35085 16.8582 3.53646 16.724 3.77841 16.6278C4.02036 16.5284 4.317 16.4787 4.66832 16.4787C5.18537 16.4787 5.5947 16.5897 5.89631 16.8118ZM11.4707 24.6719C12.0375 24.9901 12.7136 25.1491 13.4991 25.1491C14.1288 25.1491 14.684 25.053 15.1646 24.8608C15.6485 24.6652 16.0429 24.3935 16.3478 24.0455C16.6561 23.6941 16.8599 23.2831 16.9593 22.8125L15.0005 22.6832C14.9276 22.8755 14.8216 23.0379 14.6824 23.1705C14.5431 23.303 14.3758 23.4025 14.1802 23.4688C13.9847 23.535 13.7692 23.5682 13.5339 23.5682C13.1793 23.5682 12.8727 23.4936 12.6142 23.3445C12.3556 23.1953 12.1551 22.9832 12.0126 22.7081C11.8734 22.433 11.8038 22.1065 11.8038 21.7287V21.7237H17.0041V21.142C17.0041 20.4924 16.9129 19.9257 16.7306 19.4418C16.5484 18.9545 16.2931 18.5502 15.965 18.2287C15.6402 17.9072 15.2591 17.6669 14.8216 17.5078C14.3874 17.3454 13.9184 17.2642 13.4146 17.2642C12.6655 17.2642 12.0126 17.4299 11.4558 17.7614C10.9023 18.0928 10.4731 18.5552 10.1681 19.1484C9.86322 19.7417 9.71076 20.4311 9.71076 21.2166C9.71076 22.022 9.86322 22.7197 10.1681 23.3097C10.4731 23.8963 10.9073 24.3504 11.4707 24.6719ZM11.8058 20.4112C11.8186 20.137 11.8892 19.8868 12.0176 19.6605C12.1568 19.4119 12.349 19.2147 12.5943 19.0689C12.8429 18.9197 13.1279 18.8452 13.4494 18.8452C13.7576 18.8452 14.0278 18.9131 14.2598 19.049C14.4951 19.1816 14.679 19.3655 14.8116 19.6009C14.9442 19.8362 15.0105 20.1063 15.0105 20.4112H11.8058ZM19.818 24.652C20.3815 24.9834 21.0543 25.1491 21.8365 25.1491C22.5159 25.1491 23.1042 25.0249 23.6014 24.7763C24.0985 24.5277 24.488 24.183 24.7697 23.7422C25.0547 23.2981 25.2138 22.7843 25.247 22.201H23.2484C23.2086 22.4695 23.1241 22.6998 22.9949 22.892C22.8689 23.081 22.7082 23.2251 22.5126 23.3246C22.3204 23.424 22.1033 23.4737 21.8613 23.4737C21.5332 23.4737 21.2465 23.3842 21.0012 23.2053C20.756 23.0263 20.5654 22.7661 20.4295 22.4247C20.2969 22.0833 20.2306 21.669 20.2306 21.1818C20.2306 20.7012 20.2986 20.2919 20.4345 19.9538C20.5704 19.6158 20.7593 19.3589 21.0012 19.1832C21.2465 19.0043 21.5332 18.9148 21.8613 18.9148C22.2491 18.9148 22.5623 19.0324 22.801 19.2678C23.0429 19.4998 23.1921 19.8063 23.2484 20.1875H25.247C25.2172 19.5975 25.0564 19.0838 24.7647 18.6463C24.4731 18.2088 24.077 17.8691 23.5765 17.6271C23.0761 17.3852 22.4927 17.2642 21.8265 17.2642C21.0543 17.2642 20.3881 17.4316 19.8279 17.7663C19.2678 18.0978 18.8353 18.5601 18.5304 19.1534C18.2288 19.7434 18.0779 20.4295 18.0779 21.2116C18.0779 21.9839 18.2271 22.6667 18.5254 23.2599C18.827 23.8532 19.2579 24.3172 19.818 24.652ZM31.5 17.3636V21.7486C31.5033 22.09 31.4354 22.3767 31.2962 22.6087C31.1603 22.8407 30.9813 23.0163 30.7592 23.1357C30.5372 23.2517 30.2985 23.3097 30.0433 23.3097C29.6423 23.3097 29.3224 23.1787 29.0838 22.9169C28.8452 22.6551 28.7242 22.2988 28.7209 21.848V17.3636H26.603V22.2259C26.6063 22.8224 26.7157 23.3345 26.9311 23.7621C27.1499 24.1896 27.4531 24.5194 27.8409 24.7514C28.2287 24.9834 28.6778 25.0994 29.1882 25.0994C29.7616 25.0994 30.2472 24.9635 30.6449 24.6918C31.0459 24.42 31.3326 24.0604 31.505 23.6129H31.5845V25H33.6179V17.3636H31.5ZM42.1367 24.6719C42.7035 24.9901 43.3796 25.1491 44.1651 25.1491C44.7949 25.1491 45.35 25.053 45.8306 24.8608C46.3145 24.6652 46.7089 24.3935 47.0139 24.0455C47.3221 23.6941 47.5259 23.2831 47.6254 22.8125L45.6665 22.6832C45.5936 22.8755 45.4876 23.0379 45.3484 23.1705C45.2092 23.303 45.0418 23.4025 44.8462 23.4688C44.6507 23.535 44.4352 23.5682 44.1999 23.5682C43.8453 23.5682 43.5387 23.4936 43.2802 23.3445C43.0217 23.1953 42.8211 22.9832 42.6786 22.7081C42.5394 22.433 42.4698 22.1065 42.4698 21.7287V21.7237H47.6701V21.142C47.6701 20.4924 47.579 19.9257 47.3967 19.4418C47.2144 18.9545 46.9592 18.5502 46.631 18.2287C46.3062 17.9072 45.9251 17.6669 45.4876 17.5078C45.0534 17.3454 44.5844 17.2642 44.0806 17.2642C43.3316 17.2642 42.6786 17.4299 42.1218 17.7614C41.5683 18.0928 41.1391 18.5552 40.8342 19.1484C40.5292 19.7417 40.3768 20.4311 40.3768 21.2166C40.3768 22.022 40.5292 22.7197 40.8342 23.3097C41.1391 23.8963 41.5733 24.3504 42.1367 24.6719ZM42.4718 20.4112C42.4846 20.137 42.5552 19.8868 42.6836 19.6605C42.8228 19.4119 43.015 19.2147 43.2603 19.0689C43.5089 18.9197 43.7939 18.8452 44.1154 18.8452C44.4237 18.8452 44.6938 18.9131 44.9258 19.049C45.1611 19.1816 45.3451 19.3655 45.4776 19.6009C45.6102 19.8362 45.6765 20.1063 45.6765 20.4112H42.4718ZM50.2901 24.6768C50.7608 24.9751 51.2861 25.1243 51.8661 25.1243C52.2771 25.1243 52.6251 25.0563 52.9102 24.9205C53.1985 24.7846 53.4322 24.6139 53.6111 24.4084C53.7934 24.1996 53.9343 23.9891 54.0337 23.777H54.1232V25H56.2113V14.8182H54.0984V18.6463H54.0337C53.9409 18.4408 53.805 18.232 53.6261 18.0199C53.4504 17.8045 53.2184 17.6255 52.93 17.483C52.645 17.3371 52.2887 17.2642 51.8611 17.2642C51.301 17.2642 50.7856 17.41 50.315 17.7017C49.8477 17.9901 49.4731 18.4259 49.1914 19.0092C48.9097 19.5893 48.7688 20.3168 48.7688 21.1918C48.7688 22.0436 48.9047 22.7628 49.1765 23.3494C49.4516 23.9328 49.8228 24.3752 50.2901 24.6768ZM53.4023 23.1605C53.167 23.3461 52.8787 23.4389 52.5373 23.4389C52.1893 23.4389 51.896 23.3445 51.6573 23.1555C51.422 22.9633 51.2414 22.6982 51.1154 22.3601C50.9928 22.0187 50.9315 21.6259 50.9315 21.1818C50.9315 20.741 50.9928 20.3532 51.1154 20.0185C51.238 19.6837 51.4187 19.4219 51.6573 19.233C51.896 19.044 52.1893 18.9496 52.5373 18.9496C52.8787 18.9496 53.1687 19.0407 53.4073 19.223C53.646 19.4053 53.8282 19.6638 53.9542 19.9986C54.0801 20.3333 54.1431 20.7277 54.1431 21.1818C54.1431 21.6359 54.0785 22.032 53.9492 22.37C53.8233 22.7081 53.641 22.9716 53.4023 23.1605Z" fill="#596098"/>
</svg>
